<svg xmlns="http://www.w3.org/2000/svg" width="346" height="490" viewBox="0 0 346 490">
<g transform="translate(0.000000,490.000000) scale(0.100000,-0.100000)"
fill="#111" stroke="currentColor" stroke-width="2" stroke-linecap="round" 
stroke-linejoin="round">
<path d="M2790 4869 c-164 -27 -325 -174 -373 -340 l-12 -41 -48 61 c-40 51
-53 61 -79 61 -37 0 -68 -32 -122 -124 -33 -57 -43 -66 -60 -61 -140 41 -180
47 -321 52 -127 4 -166 2 -252 -16 -124 -26 -265 -81 -367 -145 -91 -57 -226
-182 -297 -275 -63 -83 -151 -262 -178 -361 -40 -149 -51 -342 -25 -466 6 -30
5 -31 -48 -42 -29 -7 -71 -23 -93 -35 -33 -19 -40 -28 -43 -58 -2 -28 5 -45
37 -86 l41 -50 -91 -5 c-81 -5 -100 -10 -174 -47 -137 -68 -226 -180 -261
-328 -14 -60 -15 -130 -9 -578 3 -280 8 -550 10 -600 2 -49 7 -342 10 -650 6
-500 9 -564 24 -600 21 -49 78 -101 124 -113 22 -6 335 -7 823 -2 434 5 1118
11 1519 15 402 3 744 9 760 12 71 13 138 72 156 138 8 27 9 129 5 315 -3 151
-8 615 -11 1030 -7 979 -11 1139 -36 1209 -40 115 -149 248 -294 357 -73 55
-219 144 -235 144 -5 0 -12 11 -16 25 -5 21 13 56 104 193 177 270 234 376
285 537 44 137 64 198 82 245 26 66 31 201 11 280 -44 171 -202 317 -380 349
-67 12 -88 12 -166 0z m156 -40 c119 -22 236 -99 298 -197 49 -79 69 -157 64
-259 -4 -79 -10 -102 -40 -165 -74 -155 -219 -248 -387 -248 -261 0 -456 211
-438 474 10 148 103 285 239 354 95 49 164 59 264 41z m-635 -316 c53 -61 89
-125 89 -159 0 -51 35 -151 76 -218 l38 -61 0 -290 c0 -293 -7 -371 -34 -386
-8 -5 -53 -24 -100 -44 -91 -38 -333 -167 -363 -193 -20 -18 -22 -17 -30 26
l-6 32 42 0 c55 0 134 38 174 83 18 21 40 62 49 93 14 49 14 65 3 118 -31 148
-158 319 -307 416 -57 37 -71 51 -76 78 -8 37 -39 44 -56 12 -6 -11 -21 -20
-34 -20 -68 0 -158 -58 -194 -125 -33 -62 -14 -210 41 -320 l20 -40 -61 58
c-71 67 -168 117 -228 117 -56 0 -136 -42 -168 -89 -14 -20 -32 -64 -38 -95
-10 -45 -18 -60 -35 -67 -30 -11 -29 -37 0 -48 18 -7 26 -22 36 -66 29 -128
123 -298 213 -386 59 -57 159 -83 224 -59 15 6 28 9 30 8 1 -2 -36 -35 -83
-73 -47 -39 -112 -98 -144 -133 l-59 -63 -93 25 c-158 43 -374 135 -441 189
-28 21 -75 52 -107 67 -57 29 -169 140 -169 167 0 18 57 42 142 58 38 7 71 15
74 18 3 2 0 24 -6 48 -34 145 -19 371 36 530 81 242 281 467 519 586 205 104
486 130 715 68 52 -14 104 -28 115 -31 17 -4 26 6 51 58 35 70 89 148 103 148
5 0 24 -17 42 -37z m265 -484 c10 -12 38 -32 62 -46 155 -91 368 -82 512 21
27 20 50 34 50 32 0 -3 -13 -42 -30 -89 -57 -161 -114 -272 -287 -557 -131
-216 -166 -280 -156 -280 5 0 24 26 43 57 l34 57 9 -29 c5 -17 9 -111 10 -210
1 -206 -8 -257 -74 -390 -51 -104 -124 -194 -200 -245 -49 -34 -74 -44 -132
-52 -142 -19 -283 -94 -342 -182 -29 -43 -32 -45 -115 -61 -106 -22 -244 -22
-333 -1 -67 16 -160 57 -172 76 -3 5 14 15 40 21 25 6 48 16 51 21 4 6 -1 8
-12 4 -11 -3 -102 -26 -204 -51 -207 -51 -306 -65 -463 -65 l-108 0 59 55
c154 143 196 380 101 568 -11 20 -18 37 -15 37 2 0 28 -11 58 -24 167 -74 442
-148 638 -171 63 -8 121 -15 128 -15 7 0 -3 -15 -21 -34 -58 -57 -54 -106 10
-133 111 -46 343 51 343 143 0 21 3 23 19 14 56 -30 166 7 239 80 63 63 71
123 19 148 -27 13 -28 15 -11 33 17 19 18 19 30 -10 17 -41 51 -48 107 -23 57
26 114 83 143 146 26 56 29 78 14 106 -22 42 -104 28 -162 -27 -33 -32 -33
-32 -9 37 36 103 60 215 75 355 9 77 21 181 27 230 10 86 5 401 -8 453 -7 28
8 28 33 1z m-799 -91 c-16 -44 -50 -221 -60 -323 l-12 -119 -37 79 c-81 179
-71 301 29 354 44 23 88 28 80 9z m182 -78 c103 -78 153 -136 202 -236 53
-108 61 -188 27 -254 -52 -100 -176 -136 -273 -79 -42 25 -43 32 -9 47 35 17
66 89 55 128 -16 54 -23 64 -58 85 -27 17 -45 20 -83 17 l-48 -5 5 36 c21 144
70 321 89 321 7 0 49 -27 93 -60z m-513 -244 c51 -24 152 -115 175 -157 11
-22 11 -22 -76 -14 -47 4 -147 7 -221 7 l-134 0 0 26 c1 60 53 133 110 155 34
13 98 5 146 -17z m484 -164 c6 -24 6 -40 0 -46 -7 -7 -10 0 -10 20 0 16 -7 42
-15 58 -13 25 -13 27 0 16 8 -7 19 -28 25 -48z m-113 -151 c1 -3 -13 -15 -31
-27 l-33 -21 -12 46 c-6 26 -23 71 -37 100 l-24 54 67 -73 c38 -40 69 -76 70
-79z m-317 60 c-17 -33 -12 -96 11 -125 44 -56 108 -70 171 -37 l37 18 6 -51
c17 -136 -72 -246 -198 -246 -26 0 -62 6 -80 14 -40 16 -130 114 -175 189 -40
67 -82 180 -82 225 l0 32 160 0 c156 0 160 -1 150 -19z m968 -73 c30 -30 1
-151 -70 -298 -44 -92 -61 -115 -142 -195 -97 -96 -161 -139 -275 -185 -138
-56 -303 -74 -449 -49 -66 12 -102 35 -102 67 0 50 382 362 472 385 27 7 56
25 83 52 46 47 131 99 295 179 112 56 164 68 188 44z m-574 -22 c59 -25 81
-81 55 -140 -15 -33 -71 -59 -109 -51 -41 9 -80 58 -80 100 0 39 39 91 73 98
12 2 23 5 25 6 1 0 18 -5 36 -13z m-316 -12 c37 -18 50 -34 28 -34 -14 0 -78
49 -65 50 3 0 20 -7 37 -16z m1418 -126 c156 -102 297 -245 352 -357 23 -46
42 -91 42 -100 0 -9 -26 -32 -57 -51 -30 -19 -81 -60 -112 -90 -39 -39 -70
-60 -101 -69 -103 -30 -216 -105 -277 -184 l-22 -28 -7 47 c-5 32 -1 63 11
104 20 66 16 134 -11 179 -16 26 -15 31 4 82 40 109 56 216 57 381 0 87 3 158
6 158 3 0 55 -32 115 -72z m-1159 -83 c3 -2 -77 -62 -103 -78 -7 -4 -1 20 14
52 l26 59 31 -15 c16 -9 31 -16 32 -18z m751 -118 c5 -42 -42 -113 -96 -148
-59 -38 -96 -36 -100 5 -5 43 16 82 71 132 43 38 56 45 86 42 31 -3 36 -7 39
-31z m-1992 -41 c172 -46 294 -180 324 -356 26 -156 -48 -332 -177 -421 -216
-149 -521 -77 -638 151 -46 89 -58 231 -29 330 64 217 305 353 520 296z m1722
-198 c39 -39 -30 -126 -122 -153 -64 -19 -96 -9 -96 29 0 71 173 169 218 124z
m482 -167 c10 -42 9 -59 -5 -106 -14 -49 -28 -69 -120 -160 -106 -108 -132
-126 -115 -79 15 39 12 53 -19 84 l-29 29 49 32 c61 39 129 114 177 195 20 34
40 60 43 58 4 -2 12 -26 19 -53z m-740 24 c0 -9 -6 -12 -15 -9 -8 4 -15 10
-15 15 0 5 7 9 15 9 8 0 15 -7 15 -15z m-62 -31 c27 -19 28 -34 1 -68 -55 -69
-218 -107 -268 -62 -58 53 59 146 184 146 39 0 69 -6 83 -16z m933 -252 c-36
-118 -44 -221 -38 -452 7 -256 24 -393 103 -790 63 -318 77 -502 54 -697 -14
-123 -26 -162 -49 -156 -17 4 -18 13 -13 128 10 233 -18 384 -143 780 -87 274
-128 422 -159 573 -14 67 -26 124 -26 126 0 2 22 17 49 33 31 20 59 48 77 79
28 48 30 59 23 204 -3 76 17 124 78 190 31 33 58 59 60 56 2 -2 -5 -35 -16
-74z m-153 -44 c-4 -86 -9 -112 -32 -155 -30 -60 -76 -95 -148 -114 -40 -11
-55 -10 -102 4 -52 17 -107 51 -96 59 3 3 57 39 121 81 77 51 139 101 185 151
38 41 71 75 73 75 2 1 2 -45 -1 -101z m480 -44 c-76 -74 -141 -134 -145 -134
-4 0 55 63 132 140 76 76 142 137 145 134 3 -3 -57 -66 -132 -140z m135 -165
c-1 -4 -51 4 -110 17 -60 12 -110 23 -113 23 -2 1 45 51 105 111 l110 110 5
-127 c3 -71 4 -131 3 -134z m-923 236 c83 -43 20 -149 -130 -219 -82 -39 -184
-44 -220 -11 -60 55 47 177 198 226 71 22 114 23 152 4z m-1082 -154 c33 -23
135 -66 179 -75 22 -5 33 -14 37 -32 15 -58 139 -154 199 -154 11 0 43 -21 73
-46 l54 -47 -77 -33 c-131 -57 -258 -157 -298 -233 -14 -27 -16 -28 -127 -34
-96 -5 -180 -21 -274 -52 -19 -6 -22 -1 -34 52 -21 99 -24 313 -6 459 9 73 18
138 21 145 4 11 148 55 218 67 5 1 21 -6 35 -17z m662 -70 c0 -26 43 -59 88
-67 l37 -7 -45 -19 c-151 -64 -299 -84 -375 -49 -37 16 -125 100 -125 118 0 5
57 9 128 10 70 1 154 8 187 16 87 21 105 21 105 -2z m737 -48 c-2 -16 -4 -5
-4 22 0 28 2 40 4 28 2 -13 2 -35 0 -50z m601 -23 c6 0 12 -7 12 -16 0 -12 -6
-15 -22 -11 -12 4 -69 16 -127 28 -58 12 -108 24 -111 26 -2 2 2 8 9 12 7 5
59 -2 120 -15 58 -13 112 -23 119 -24z m-1014 18 c22 -84 -19 -192 -92 -243
-39 -27 -51 -30 -120 -30 -68 0 -84 4 -138 33 -33 18 -78 47 -98 64 l-38 31
92 23 c50 13 128 39 173 60 216 96 212 95 221 62z m896 -37 l125 -28 3 -96 3
-97 -33 7 c-18 4 -66 14 -107 22 l-73 16 -29 100 c-16 55 -29 101 -29 103 0 4
12 2 140 -27z m-761 -71 c0 -8 -7 1 -14 20 -18 46 -17 64 0 25 8 -16 14 -37
14 -45z m60 -19 c1 -48 -5 -35 -12 24 -4 32 -3 43 3 30 5 -11 9 -35 9 -54z
m-1896 24 c141 -4 257 -11 257 -15 0 -5 -105 -109 -232 -232 -128 -123 -321
-311 -430 -418 -109 -107 -198 -187 -198 -179 0 9 100 112 223 230 275 264
587 572 584 576 -2 1 -187 7 -412 14 -226 6 -412 13 -414 15 -2 2 -1 9 1 16 4
10 43 12 184 7 99 -4 295 -10 437 -14z m42 -81 l90 -6 -170 -166 c-93 -92
-258 -254 -366 -361 l-197 -194 -6 84 c-3 46 -7 214 -9 373 l-2 288 285 -6
c157 -4 326 -9 375 -12z m-103 -353 c-197 -192 -395 -388 -442 -435 -46 -47
-88 -86 -92 -86 -5 0 -8 9 -8 19 0 17 192 208 754 753 64 62 109 98 123 98 15
0 -78 -97 -335 -349z m1996 333 c6 -2 12 -12 12 -24 0 -47 95 -387 184 -656
112 -338 139 -440 156 -584 12 -103 11 -292 -1 -305 -4 -3 -22 -2 -40 3 l-34
8 -11 115 c-13 126 -44 267 -81 374 -14 39 -101 225 -193 415 -193 395 -236
493 -220 498 45 15 108 72 130 118 26 54 36 57 98 38z m-1580 -57 c18 -34 32
-69 32 -78 0 -8 -39 -53 -87 -100 -49 -46 -236 -228 -418 -404 -181 -176 -365
-354 -408 -394 l-77 -74 0 115 0 116 258 249 c421 408 657 633 662 633 3 0 20
-28 38 -63z m2297 -8 c60 -12 84 -24 73 -35 -5 -4 -166 24 -177 32 -9 7 13 24
27 20 10 -2 44 -10 77 -17z m-1218 -40 c26 -7 67 -21 91 -32 23 -10 60 -21 82
-24 22 -3 40 -10 40 -15 0 -15 154 -324 284 -573 128 -243 174 -351 211 -499
26 -102 52 -282 43 -291 -3 -3 -16 -1 -30 4 -20 7 -27 19 -32 53 -12 74 -72
241 -126 348 -86 171 -360 563 -495 708 -93 100 -248 218 -359 275 l-30 15 34
17 c19 10 64 28 99 40 63 21 66 21 102 3 20 -9 59 -23 86 -29z m1216 -5 l77
-18 0 -53 c0 -29 -3 -53 -7 -53 -5 1 -41 9 -82 18 l-74 17 -13 45 c-18 60 -18
72 4 66 9 -2 52 -12 95 -22z m-1008 -14 c18 -8 18 -9 -5 -9 -14 0 -34 4 -45 9
-18 8 -18 9 5 9 14 0 34 -4 45 -9z m875 -101 c148 -30 210 -46 210 -56 0 -7
-6 -13 -13 -13 -40 0 -433 84 -439 93 -13 21 -9 29 12 24 12 -3 115 -24 230
-48z m-2121 14 c-1 -5 -56 -60 -123 -123 -66 -63 -286 -277 -489 -475 -202
-198 -372 -361 -377 -363 -6 -2 -10 3 -10 11 0 8 78 88 172 178 95 90 270 258
388 374 370 362 415 405 428 405 6 0 11 -3 11 -7z m21 -122 l12 -74 -238 -236
c-408 -403 -781 -760 -788 -754 -3 4 -6 48 -6 100 l0 93 157 153 c86 83 310
301 497 484 211 206 343 328 347 320 3 -7 12 -45 19 -86z m2103 48 l207 -42 0
-66 c0 -36 3 -159 7 -272 l6 -206 -37 -40 -36 -41 -132 44 c-73 24 -138 44
-145 44 -7 0 -13 2 -13 5 0 2 -15 89 -34 192 -19 103 -40 226 -46 273 -5 47
-13 102 -16 124 -5 34 -4 37 12 33 11 -3 112 -25 227 -48z m-1933 -165 l29
-50 -232 -229 c-128 -126 -293 -288 -367 -360 -74 -72 -233 -226 -352 -343
-119 -117 -221 -212 -226 -212 -17 0 -32 51 -31 103 l1 52 296 285 c162 157
416 404 563 548 148 145 273 262 279 260 6 -2 24 -26 40 -54z m-315 -182
c-506 -498 -865 -843 -865 -829 0 9 125 136 278 284 152 147 383 372 512 499
207 203 272 262 290 263 3 1 -94 -97 -215 -217z m5 -283 c-487 -481 -790 -771
-802 -767 -5 2 -9 7 -9 11 0 4 238 239 528 521 291 282 546 532 568 555 22 23
48 41 60 40 14 0 -85 -104 -345 -360z m406 305 l27 -46 -129 -127 c-257 -251
-840 -818 -901 -875 l-62 -59 -56 5 c-30 3 -58 7 -61 11 -3 3 52 61 122 129
189 181 547 531 804 785 124 123 226 223 227 223 1 0 14 -21 29 -46z m918 1
c19 -29 19 -29 -23 -14 -32 11 -40 24 -18 32 21 9 24 8 41 -18z m32 -55 c17
-7 194 -238 194 -254 0 -2 -33 6 -73 20 l-73 24 -57 116 c-62 124 -62 120 9
94z m-1016 -163 c-666 -652 -914 -887 -933 -887 -21 0 20 41 738 738 169 164
277 262 290 262 14 0 -13 -32 -95 -113z m156 62 l18 -41 -39 -36 c-22 -20
-211 -203 -420 -407 -522 -511 -469 -465 -546 -465 l-64 0 135 127 c74 70 243
233 375 363 452 444 510 500 516 500 3 0 14 -19 25 -41z m-55 -181 c-53 -51
-215 -210 -361 -353 -376 -370 -424 -415 -446 -415 -14 0 -4 15 41 57 119 113
304 292 563 546 145 141 272 257 282 257 11 0 -17 -33 -79 -92z m-163 -286
c-172 -169 -354 -347 -405 -395 l-91 -87 -54 0 -53 0 85 82 c47 45 179 175
295 288 116 113 274 268 353 344 l143 139 20 -32 20 -32 -313 -307z m1977 307
c71 -23 126 -43 120 -45 -5 -2 -68 17 -140 41 -71 24 -126 44 -120 44 5 1 68
-18 140 -40z m-1185 -41 l95 -31 -358 -353 -358 -353 -154 -3 c-85 -2 -155 -2
-155 -2 0 3 544 540 665 657 102 99 134 125 150 120 11 -3 63 -19 115 -35z
m1168 4 l113 -37 -62 -73 c-66 -77 -66 -78 -132 -53 -21 8 -25 18 -31 82 -3
40 -9 83 -12 96 -4 12 -2 23 3 23 5 0 59 -17 121 -38z m123 -89 c-56 -65 -99
-124 -96 -130 5 -15 3 -15 -19 -7 -13 5 -8 17 31 63 97 116 176 202 180 197 3
-3 -40 -58 -96 -123z m-696 -39 c26 -47 45 -87 42 -90 -3 -3 -43 8 -88 24
l-84 29 -48 91 -47 91 88 -30 89 -30 48 -85z m-1366 -182 c-370 -362 -459
-446 -465 -439 -3 3 50 58 118 123 151 146 537 525 586 577 19 20 42 37 51 37
8 0 -122 -134 -290 -298z m342 262 c14 -26 13 -27 -271 -306 -370 -363 -394
-384 -448 -391 -24 -3 -42 -2 -40 3 4 11 731 719 739 720 3 0 12 -12 20 -26z
m1816 -231 c-2 -2 -41 11 -86 28 l-81 32 57 66 c31 36 68 79 82 94 l26 28 3
-122 c1 -67 1 -123 -1 -126z m-1306 168 c-17 -30 -632 -631 -647 -631 -8 0 52
64 132 143 426 416 519 507 522 507 1 0 -2 -8 -7 -19z m-711 -224 c-373 -369
-451 -442 -439 -410 7 17 643 633 654 633 6 0 -90 -100 -215 -223z m-34 -113
c-229 -225 -304 -293 -327 -296 -16 -3 -28 -1 -27 3 2 4 144 146 317 315 278
272 315 305 324 288 9 -16 -27 -56 -287 -310z m509 19 c-227 -222 -333 -319
-341 -311 -2 3 30 38 73 79 43 41 161 156 263 256 102 101 192 183 200 182 8
0 -79 -93 -195 -206z m755 169 c74 -27 75 -28 97 -82 12 -30 20 -56 18 -58 -2
-2 -40 8 -85 23 l-81 27 -29 59 c-17 32 -30 61 -30 64 0 7 9 5 110 -33z m507
27 c27 -9 35 -21 60 -95 17 -48 25 -84 19 -83 -6 0 -33 8 -61 18 l-50 18 -3
76 c-2 42 -1 77 1 77 2 0 18 -5 34 -11z m-996 -95 l39 -86 -43 -43 c-23 -24
-100 -98 -171 -165 l-130 -120 -134 0 -135 0 94 87 c52 48 170 162 264 254 93
93 171 166 174 164 2 -3 21 -44 42 -91z m1129 86 c8 -5 11 -10 5 -10 -5 0 -17
5 -25 10 -8 5 -10 10 -5 10 6 0 17 -5 25 -10z m58 -57 c50 -20 92 -39 92 -44
0 -4 -30 3 -67 18 -38 14 -87 32 -110 40 -24 8 -43 19 -43 25 0 6 8 7 18 3 9
-4 59 -23 110 -42z m10 -83 l82 -31 0 -61 c0 -44 -3 -59 -12 -55 -7 2 -39 13
-70 22 l-57 18 -25 75 c-16 46 -21 72 -13 69 7 -3 49 -19 95 -37z m-633 -45
c46 -18 61 -29 68 -49 5 -15 7 -29 5 -32 -7 -6 -131 37 -144 50 -6 6 -16 24
-22 39 -14 33 -17 33 93 -8z m462 -16 l61 -22 -31 -42 -32 -42 -43 15 c-37 12
-43 18 -38 36 3 11 6 33 6 49 0 33 0 33 77 6z m-1027 -82 c-186 -176 -233
-217 -248 -217 -24 1 258 269 283 269 15 1 7 -11 -35 -52z m110 -48 l32 -76
-43 -41 c-43 -41 -45 -42 -119 -42 -41 0 -100 -3 -130 -6 l-55 -6 124 119 c69
65 129 123 135 130 14 15 17 11 56 -78z m1043 -31 c35 -108 36 -108 14 -112
-12 -3 -149 -7 -304 -9 -258 -3 -281 -2 -270 12 7 9 29 39 51 68 l38 51 125
-44 c68 -24 129 -44 136 -44 7 0 46 45 87 100 41 55 77 96 81 92 4 -4 22 -55
42 -114z m-564 85 c48 -16 72 -36 58 -49 -10 -11 -117 28 -127 46 -13 25 -13
33 3 27 6 -3 36 -14 66 -24z m687 -51 c-7 -6 -116 31 -116 39 0 5 27 -1 60
-13 33 -12 58 -24 56 -26z m-276 -11 c0 -17 -38 -41 -54 -35 -15 6 -22 44 -10
57 7 7 64 -12 64 -22z m-381 -6 c48 -16 22 -29 -28 -14 -22 7 -42 18 -45 26
-6 15 -2 14 73 -12z m-176 -16 c65 -13 66 -15 15 -84 l-33 -44 -103 -1 -103 0
63 75 c48 58 68 74 83 70 11 -2 46 -10 78 -16z m791 -4 c20 -8 36 -18 36 -21
0 -11 -41 -64 -50 -64 -6 0 -40 81 -40 97 0 7 19 2 54 -12z m-624 -15 c12 -8
11 -10 -7 -10 -12 0 -25 5 -28 10 -8 13 15 13 35 0z m335 -20 c3 -5 -3 -10
-14 -10 -12 0 -21 5 -21 10 0 6 6 10 14 10 8 0 18 -4 21 -10z m-413 -41 c2
-22 2 -42 -1 -45 -2 -2 -22 -4 -43 -4 l-39 0 33 45 c18 24 36 44 39 45 4 0 9
-18 11 -41z m75 35 c-3 -3 -12 -4 -19 -1 -8 3 -5 6 6 6 11 1 17 -2 13 -5z
m-462 -64 c-10 -11 -25 -20 -33 -20 -12 0 -12 4 3 20 10 11 25 20 33 20 12 0
12 -4 -3 -20z m35 -10 c0 -5 -5 -10 -11 -10 -5 0 -7 5 -4 10 3 6 8 10 11 10 2
0 4 -4 4 -10z"/>
<path d="M2325 3092 c-11 -9 -29 -37 -40 -61 -33 -75 -129 -162 -236 -215 -52
-25 -116 -50 -142 -55 -50 -9 -65 -17 -54 -27 3 -3 40 1 82 11 169 37 335 155
389 275 32 71 32 98 1 72z"/>
<path d="M878 973 c-16 -15 -16 -17 0 -30 15 -13 14 -14 -13 -8 -29 6 -29 5
-13 -11 17 -17 19 -16 54 19 21 20 32 37 26 37 -5 0 -16 2 -24 5 -7 3 -21 -2
-30 -12z"/>
<path d="M815 906 c-12 -8 -16 -19 -11 -31 5 -14 3 -15 -6 -7 -10 7 -24 0 -55
-27 -39 -35 -40 -38 -22 -49 11 -7 19 -8 19 -2 0 5 3 9 8 8 12 -4 109 97 104
110 -5 16 -14 15 -37 -2z"/>
<path d="M645 747 c-35 -37 -49 -77 -26 -77 16 0 72 68 77 93 6 37 -4 33 -51
-16z"/>
<path d="M527 632 c-26 -26 -47 -50 -47 -53 0 -2 10 -5 21 -5 27 0 114 79 105
95 -13 20 -31 12 -79 -37z"/>
<path d="M430 534 c-28 -27 -32 -36 -21 -43 21 -13 85 47 70 66 -6 7 -12 13
-13 12 0 0 -17 -16 -36 -35z"/>
<path d="M371 476 c-9 -10 -8 -16 3 -25 10 -9 16 -8 25 3 9 10 8 16 -3 25 -10
9 -16 8 -25 -3z"/>
<path d="M258 369 c-89 -90 -97 -102 -77 -114 15 -10 59 34 59 58 0 13 5 17
16 13 8 -3 12 -2 9 3 -3 5 4 12 14 16 25 8 73 64 66 76 -4 5 2 6 12 2 16 -6
17 -5 3 13 -8 10 -14 20 -15 20 0 1 -39 -39 -87 -87z"/>
</g>
</svg>
